<?xml version="1.0" encoding="UTF-8" standalone="no"?>
<!-- Created with Inkscape (http://www.inkscape.org/) -->

<svg
   xmlns:dc="http://purl.org/dc/elements/1.1/"
   xmlns:cc="http://creativecommons.org/ns#"
   xmlns:rdf="http://www.w3.org/1999/02/22-rdf-syntax-ns#"
   xmlns:svg="http://www.w3.org/2000/svg"
   xmlns="http://www.w3.org/2000/svg"
   xmlns:sodipodi="http://sodipodi.sourceforge.net/DTD/sodipodi-0.dtd"
   xmlns:inkscape="http://www.inkscape.org/namespaces/inkscape"
   id="svg3014"
   version="1.1"
   inkscape:version="0.48.4 r9939"
   width="125"
   height="125"
   xml:space="preserve"
   sodipodi:docname="PlayIcon.ai"><metadata
     id="metadata3020"><rdf:RDF><cc:Work
         rdf:about=""><dc:format>image/svg+xml</dc:format><dc:type
           rdf:resource="http://purl.org/dc/dcmitype/StillImage" /><dc:title></dc:title></cc:Work></rdf:RDF></metadata><defs
     id="defs3018"><clipPath
       clipPathUnits="userSpaceOnUse"
       id="clipPath3028"><path
         d="M 0,100 100,100 100,0 0,0 0,100 z"
         id="path3030" /></clipPath></defs><sodipodi:namedview
     pagecolor="#ffffff"
     bordercolor="#666666"
     borderopacity="1"
     objecttolerance="10"
     gridtolerance="10"
     guidetolerance="10"
     inkscape:pageopacity="0"
     inkscape:pageshadow="2"
     inkscape:window-width="1627"
     inkscape:window-height="1026"
     id="namedview3016"
     showgrid="false"
     inkscape:zoom="7.032"
     inkscape:cx="62.5"
     inkscape:cy="62.5"
     inkscape:window-x="53"
     inkscape:window-y="24"
     inkscape:window-maximized="1"
     inkscape:current-layer="g3022" /><g
     id="g3022"
     inkscape:groupmode="layer"
     inkscape:label="PlayIcon"
     transform="matrix(1.25,0,0,-1.25,0,125)"><g
       id="g3024"
       style="fill:#ffffff"><g
         id="g3026"
         clip-path="url(#clipPath3028)"
         style="fill:#ffffff"><g
           id="g3032"
           transform="translate(50,100)"
           style="fill:#ffffff"><path
             d="m 0,0 c -27.6,0 -50,-22.4 -50,-50 0,-27.6 22.4,-50 50,-50 27.6,0 50,22.4 50,50 C 50,-22.4 27.6,0 0,0 m 0,-10 c 22.1,0 40,-17.9 40,-40 0,-22.1 -17.9,-40 -40,-40 -22.1,0 -40,17.9 -40,40 0,22.1 17.9,40 40,40"
             style="fill:#ffffff;fill-opacity:1;fill-rule:nonzero;stroke:none"
             id="path3034" /></g><g
           id="g3036"
           transform="translate(38.7,72.8)"
           style="fill:#ffffff"><path
             d="M 0,0 34.9,-22.6 0,-45.2 0,0 z"
             style="fill:#ffffff;fill-opacity:1;fill-rule:nonzero;stroke:none"
             id="path3038" /></g></g></g></g></svg>